<svg xmlns="http://www.w3.org/2000/svg" version="1.1" xmlns:xlink="http://www.w3.org/1999/xlink" width="645" height="406.45"><svg id="SvgjsSvg1255" data-name="Layer 2" xmlns="http://www.w3.org/2000/svg" viewBox="0 0 645 406.45"><defs><style>.cls-1{fill:#1d1d1b;}.cls-2{fill:#29363b;}</style></defs><path class="cls-1" d="M634.45,93.29v38q15.72,0,24.36,7.77T667.45,161v79.87q0,35.64,19.88,55.24t56.12,19.58v-38q-17.22,0-26.61-8.41t-9.39-23.87V160.83q0-32.21-19-49.87T634.45,93.29Z" transform="translate(-98.45 -93.29)"></path><path class="cls-1" d="M743.45,277.39v38q-15.72,0-24.36,7.76t-8.64,21.94v79.87q0,35.64-19.88,55.23t-56.12,19.59v-38q17.22,0,26.61-8.41t9.39-23.87V344.92q0-32.21,19-49.87T743.45,277.39Z" transform="translate(-98.45 -93.29)"></path><path class="cls-1" d="M207.45,93.29v38q-15.72,0-24.36,7.77T174.45,161v79.87q0,35.64-19.88,55.24T98.45,315.64v-38q17.22,0,26.61-8.41t9.39-23.87V160.83q0-32.21,19-49.87T207.45,93.29Z" transform="translate(-98.45 -93.29)"></path><path class="cls-1" d="M98.45,277.39v38q15.72,0,24.36,7.76t8.64,21.94v79.87q0,35.64,19.88,55.23t56.12,19.59v-38q-17.22,0-26.61-8.41t-9.39-23.87V344.92q0-32.21-19-49.87T98.45,277.39Z" transform="translate(-98.45 -93.29)"></path><path class="cls-2" d="M572,461.78V131.25h36.5v-38h-89V390.11L374.61,168.65,327.45,93.29h-94v38H270V462.34h-36.5v37.4h375v-38Zm-250,38V202.47l144.84,221.8L514,499.74Z" transform="translate(-98.45 -93.29)"></path></svg><style>@media (prefers-color-scheme: light) { :root { filter: none; } }
@media (prefers-color-scheme: dark) { :root { filter: invert(100%); } }
</style></svg>